<svg width="369" height="359" viewBox="0 0 369 359" fill="none" xmlns="http://www.w3.org/2000/svg">
<path d="M261.375 314.125V284.208C261.375 268.34 254.896 253.121 243.362 241.9C231.829 230.679 216.186 224.375 199.875 224.375H76.875C60.5642 224.375 44.9214 230.679 33.3879 241.9C21.8544 253.121 15.375 268.34 15.375 284.208V314.125" stroke="black" stroke-width="15" stroke-linecap="round" stroke-linejoin="round"/>
<path d="M138.375 164.542C172.341 164.542 199.875 137.753 199.875 104.708C199.875 71.6633 172.341 44.875 138.375 44.875C104.409 44.875 76.875 71.6633 76.875 104.708C76.875 137.753 104.409 164.542 138.375 164.542Z" stroke="black" stroke-width="15" stroke-linecap="round" stroke-linejoin="round"/>
<path d="M353.625 314.125V284.208C353.615 270.951 349.079 258.073 340.731 247.595C332.383 237.117 320.694 229.634 307.5 226.32" stroke="black" stroke-width="15" stroke-linecap="round" stroke-linejoin="round"/>
<path d="M246 46.8196C259.229 50.1149 270.954 57.6001 279.327 68.095C287.701 78.5899 292.246 91.4976 292.246 104.783C292.246 118.069 287.701 130.976 279.327 141.471C270.954 151.966 259.229 159.451 246 162.747" stroke="black" stroke-width="15" stroke-linecap="round" stroke-linejoin="round"/>
</svg>
