<svg width="369" height="354" viewBox="0 0 369 354" fill="none" xmlns="http://www.w3.org/2000/svg">
<path d="M287.994 195.289L158.384 51.9852C150.431 43.1913 139.673 42.1762 134.356 49.7179L76.598 131.65C71.2815 139.192 73.4192 152.434 81.3727 161.228L210.983 304.532C218.936 313.326 229.694 314.341 235.01 306.799L292.769 224.867C298.085 217.325 295.948 204.083 287.994 195.289Z" stroke="#050505" stroke-width="15" stroke-linecap="round" stroke-linejoin="round"/>
<path d="M119.425 70.8981C116.646 67.8261 112.459 68.0802 110.073 71.4657C107.686 74.8511 108.004 80.086 110.782 83.158L115.104 77.0281L119.425 70.8981ZM269.195 258.307C271.973 261.379 276.16 261.125 278.547 257.74C280.933 254.354 280.616 249.119 277.837 246.047L273.516 252.177L269.195 258.307ZM115.104 77.0281L110.782 83.158L269.195 258.307L273.516 252.177L277.837 246.047L119.425 70.8981L115.104 77.0281Z" fill="#050505"/>
</svg>
