<svg width="308" height="308" viewBox="0 0 308 308" fill="none" xmlns="http://www.w3.org/2000/svg">
<g clip-path="url(#clip0_146_92)">
<path d="M0 9.625C0 7.07229 1.01406 4.62414 2.8191 2.8191C4.62414 1.01406 7.07229 0 9.625 0L67.375 0C69.9277 0 72.3759 1.01406 74.1809 2.8191C75.9859 4.62414 77 7.07229 77 9.625C77 12.1777 75.9859 14.6259 74.1809 16.4309C72.3759 18.2359 69.9277 19.25 67.375 19.25H19.25V67.375C19.25 69.9277 18.2359 72.3759 16.4309 74.1809C14.6259 75.9859 12.1777 77 9.625 77C7.07229 77 4.62414 75.9859 2.8191 74.1809C1.01406 72.3759 0 69.9277 0 67.375V9.625ZM231 9.625C231 7.07229 232.014 4.62414 233.819 2.8191C235.624 1.01406 238.072 0 240.625 0L298.375 0C300.928 0 303.376 1.01406 305.181 2.8191C306.986 4.62414 308 7.07229 308 9.625V67.375C308 69.9277 306.986 72.3759 305.181 74.1809C303.376 75.9859 300.928 77 298.375 77C295.822 77 293.374 75.9859 291.569 74.1809C289.764 72.3759 288.75 69.9277 288.75 67.375V19.25H240.625C238.072 19.25 235.624 18.2359 233.819 16.4309C232.014 14.6259 231 12.1777 231 9.625ZM9.625 231C12.1777 231 14.6259 232.014 16.4309 233.819C18.2359 235.624 19.25 238.072 19.25 240.625V288.75H67.375C69.9277 288.75 72.3759 289.764 74.1809 291.569C75.9859 293.374 77 295.822 77 298.375C77 300.928 75.9859 303.376 74.1809 305.181C72.3759 306.986 69.9277 308 67.375 308H9.625C7.07229 308 4.62414 306.986 2.8191 305.181C1.01406 303.376 0 300.928 0 298.375V240.625C0 238.072 1.01406 235.624 2.8191 233.819C4.62414 232.014 7.07229 231 9.625 231ZM298.375 231C300.928 231 303.376 232.014 305.181 233.819C306.986 235.624 308 238.072 308 240.625V298.375C308 300.928 306.986 303.376 305.181 305.181C303.376 306.986 300.928 308 298.375 308H240.625C238.072 308 235.624 306.986 233.819 305.181C232.014 303.376 231 300.928 231 298.375C231 295.822 232.014 293.374 233.819 291.569C235.624 289.764 238.072 288.75 240.625 288.75H288.75V240.625C288.75 238.072 289.764 235.624 291.569 233.819C293.374 232.014 295.822 231 298.375 231ZM77 77H96.25V96.25H77V77Z" fill="black"/>
<path d="M134.75 38.5H38.5V134.75H134.75V38.5ZM57.75 57.75H115.5V115.5H57.75V57.75ZM96.25 211.75H77V231H96.25V211.75Z" fill="black"/>
<path d="M134.75 173.25H38.5V269.5H134.75V173.25ZM57.75 192.5H115.5V250.25H57.75V192.5ZM211.75 77H231V96.25H211.75V77Z" fill="black"/>
<path d="M173.25 38.5H269.5V134.75H173.25V38.5ZM192.5 57.75V115.5H250.25V57.75H192.5ZM154 154V192.5H173.25V211.75H154V231H192.5V192.5H211.75V231H231V211.75H269.5V192.5H211.75V154H154ZM192.5 192.5H173.25V173.25H192.5V192.5ZM269.5 231H250.25V250.25H211.75V269.5H269.5V231ZM192.5 269.5V250.25H154V269.5H192.5Z" fill="black"/>
<path d="M231 173.25H269.5V154H231V173.25Z" fill="black"/>
</g>
<defs>
<clipPath id="clip0_146_92">
<rect width="308" height="308" fill="white"/>
</clipPath>
</defs>
</svg>
